<svg width="16" height="16" viewBox="0 0 16 16" fill="none" xmlns="http://www.w3.org/2000/svg">
<path fill-rule="evenodd" clip-rule="evenodd" d="M12.5123 4.42671L9.52833 8.00738L12.405 11.582C12.6357 11.8687 12.5903 12.288 12.3037 12.5194C12.1803 12.6187 12.0323 12.6667 11.8857 12.6667C11.691 12.6667 11.4977 12.5814 11.3657 12.418L8.147 8.41804C7.94833 8.17071 7.951 7.81671 8.15433 7.57338L11.4877 3.57338C11.7237 3.29004 12.1437 3.25271 12.427 3.48804C12.7097 3.72338 12.7477 4.14404 12.5123 4.42671ZM6.8214 3.57319C7.05673 3.29052 7.47673 3.25252 7.76007 3.48785C8.04273 3.72385 8.08073 4.14385 7.8454 4.42652L4.8614 8.00719L7.73807 11.5819C7.96873 11.8685 7.9234 12.2885 7.63673 12.5192C7.5134 12.6185 7.36607 12.6665 7.21873 12.6665C7.02407 12.6665 6.83073 12.5819 6.6994 12.4179L3.48073 8.41785C3.2814 8.17052 3.28473 7.81719 3.48807 7.57319L6.8214 3.57319Z" fill="#9E9E9E"/>
</svg>
