<svg width="44" height="34" viewBox="0 0 44 34" fill="none" xmlns="http://www.w3.org/2000/svg">
<path d="M43.2756 15.3571C42.6135 14.2895 41.4435 13.6514 40.146 13.6514H11.2537C9.82153 13.6514 8.51897 14.4587 7.93433 15.7087L0.29248 31.7313C0.580978 32.9046 1.6768 33.781 2.98202 33.781H33.7212C35.0354 33.781 36.2366 33.0378 36.8236 31.8619L43.4288 18.623C43.9503 17.5753 43.8924 16.3545 43.2756 15.3571Z" fill="#4888F4"/>
<path d="M6.37874 13.2443C6.96271 11.9946 8.2656 11.1869 9.69812 11.1869H36.9049V7.70699C36.9049 6.27248 35.6948 5.1052 34.2074 5.1052H18.3434C18.3201 5.1052 18.3042 5.09922 18.2982 5.0949L15.4588 1.12474C14.9559 0.420448 14.1253 0 13.2379 0H2.91644C1.42842 0 0.218262 1.16728 0.218262 2.60179V26.1602L6.37874 13.2443Z" fill="#1241CD"/>
</svg>
