<svg width="18" height="19" viewBox="0 0 18 19" fill="none" xmlns="http://www.w3.org/2000/svg">
<path fill-rule="evenodd" clip-rule="evenodd" d="M10.125 5.74219V0.960938H3.09375C2.62617 0.960938 2.25 1.33711 2.25 1.80469V18.1172C2.25 18.5848 2.62617 18.9609 3.09375 18.9609H14.9062C15.3738 18.9609 15.75 18.5848 15.75 18.1172V6.58594H10.9688C10.5047 6.58594 10.125 6.20625 10.125 5.74219ZM12.2379 9.48633L10.125 12.7734L12.2379 16.0605C12.4172 16.3418 12.2168 16.7109 11.8828 16.7109H10.6559C10.5012 16.7109 10.357 16.6266 10.2832 16.4895C9.59414 15.2168 9 14.0742 9 14.0742C8.84116 14.4415 8.73138 14.6406 8.35155 15.3296L8.35154 15.3296C8.19332 15.6166 7.98826 15.9885 7.71328 16.493C7.63945 16.6301 7.49883 16.7145 7.34414 16.7145H6.11719C5.7832 16.7145 5.58281 16.3453 5.76211 16.0641L7.88203 12.777L5.76211 9.48984C5.5793 9.20859 5.7832 8.83945 6.11719 8.83945H7.34062C7.49531 8.83945 7.63945 8.92383 7.71328 9.06094C8.10886 9.80057 8.29404 10.122 8.42348 10.3467C8.59428 10.6432 8.668 10.7711 9 11.4691C9 11.4691 9.21445 11.0578 10.2867 9.06094C10.3605 8.92383 10.5047 8.83945 10.6594 8.83945H11.8828C12.2168 8.83594 12.4172 9.20508 12.2379 9.48633ZM15.75 5.46094V5.24648C15.75 5.025 15.6621 4.81055 15.5039 4.65234L12.0621 1.20703C11.9039 1.04883 11.6895 0.960938 11.4645 0.960938H11.25V5.46094H15.75Z" fill="#239F85"/>
</svg>
