<svg width="16" height="17" viewBox="0 0 16 17" fill="none" xmlns="http://www.w3.org/2000/svg">
<path fill-rule="evenodd" clip-rule="evenodd" d="M11.8047 6.09901C12.0651 5.83866 12.0651 5.41655 11.8047 5.1562C11.5444 4.89585 11.1223 4.89585 10.8619 5.1562L8 8.01813L5.13807 5.1562C4.87772 4.89585 4.45561 4.89585 4.19526 5.1562C3.93491 5.41655 3.93491 5.83866 4.19526 6.09901L7.05719 8.96094L4.19526 11.8229C3.93491 12.0832 3.93491 12.5053 4.19526 12.7657C4.45561 13.026 4.87772 13.026 5.13807 12.7657L8 9.90375L10.8619 12.7657C11.1223 13.026 11.5444 13.026 11.8047 12.7657C12.0651 12.5053 12.0651 12.0832 11.8047 11.8229L8.94281 8.96094L11.8047 6.09901Z" fill="#959595"/>
</svg>
