<svg width="20" height="20" viewBox="0 0 20 20" fill="none" xmlns="http://www.w3.org/2000/svg">
<g opacity="0.6">
<path d="M14.1667 5.04983C13.5887 5.05021 13.0288 5.25082 12.5821 5.61753C12.1354 5.98423 11.8295 6.49438 11.7165 7.06117C11.6036 7.62796 11.6905 8.21639 11.9625 8.72633C12.2344 9.23627 12.6747 9.63623 13.2083 9.85816C13.0815 10.1623 12.8673 10.422 12.5929 10.6044C12.3185 10.7868 11.9962 10.8838 11.6667 10.8832H8.33332C7.74585 10.8856 7.16998 11.0469 6.66665 11.3498V6.5665C7.22266 6.36992 7.69128 5.9831 7.98968 5.47443C8.28807 4.96575 8.39704 4.36796 8.29731 3.78672C8.19759 3.20547 7.89559 2.67819 7.4447 2.29807C6.99381 1.91796 6.42306 1.70947 5.83332 1.70947C5.24358 1.70947 4.67283 1.91796 4.22193 2.29807C3.77104 2.67819 3.46905 3.20547 3.36932 3.78672C3.2696 4.36796 3.37856 4.96575 3.67696 5.47443C3.97536 5.9831 4.44397 6.36992 4.99998 6.5665V13.5332C4.45081 13.7307 3.98803 14.1141 3.69186 14.6169C3.39569 15.1198 3.28478 15.7105 3.37836 16.2865C3.47194 16.8626 3.76411 17.3877 4.20423 17.771C4.64436 18.1543 5.2047 18.3715 5.78816 18.385C6.37161 18.3985 6.9414 18.2074 7.39879 17.845C7.85618 17.4825 8.17234 16.9714 8.29247 16.4003C8.41261 15.8292 8.32915 15.234 8.05656 14.718C7.78397 14.2019 7.33943 13.7975 6.79998 13.5748C6.9263 13.272 7.13918 13.0132 7.41194 12.8309C7.68471 12.6486 8.00522 12.5508 8.33332 12.5498H11.6667C12.429 12.5497 13.1683 12.2882 13.7612 11.809C14.3541 11.3298 14.7649 10.6619 14.925 9.91649C15.4821 9.72719 15.9546 9.34742 16.2594 8.84403C16.5641 8.34065 16.6815 7.74591 16.5909 7.1645C16.5003 6.58308 16.2075 6.05226 15.7641 5.66545C15.3206 5.27864 14.755 5.06065 14.1667 5.04983ZM5.83332 3.38316C5.99814 3.38316 6.15925 3.43204 6.29629 3.5236C6.43333 3.61517 6.54014 3.74532 6.60322 3.89759C6.66629 4.04986 6.68279 4.21742 6.65064 4.37907C6.61848 4.54072 6.53912 4.68921 6.42257 4.80575C6.30603 4.92229 6.15754 5.00166 5.99589 5.03382C5.83424 5.06597 5.66669 5.04947 5.51442 4.98639C5.36214 4.92332 5.23199 4.81651 5.14043 4.67947C5.04886 4.54243 4.99998 4.38131 4.99998 4.2165C4.99998 3.99548 5.08778 3.78352 5.24406 3.62724C5.40034 3.47096 5.6123 3.38316 5.83332 3.38316ZM5.83332 16.7165C5.6685 16.7165 5.50738 16.6676 5.37034 16.5761C5.2333 16.4845 5.12649 16.3543 5.06342 16.2021C5.00035 16.0498 4.98384 15.8822 5.016 15.7206C5.04815 15.5589 5.12752 15.4104 5.24406 15.2939C5.36061 15.1774 5.50909 15.098 5.67074 15.0658C5.83239 15.0337 5.99995 15.0502 6.15222 15.1133C6.30449 15.1763 6.43464 15.2831 6.52621 15.4202C6.61778 15.5572 6.66665 15.7183 6.66665 15.8832C6.66665 16.1042 6.57885 16.3161 6.42257 16.4724C6.26629 16.6287 6.05433 16.7165 5.83332 16.7165ZM14.1667 8.38316C14.0018 8.38316 13.8407 8.33429 13.7037 8.24272C13.5666 8.15115 13.4598 8.021 13.3968 7.86873C13.3337 7.71646 13.3172 7.5489 13.3493 7.38725C13.3815 7.2256 13.4609 7.07712 13.5774 6.96057C13.6939 6.84403 13.8424 6.76466 14.0041 6.73251C14.1657 6.70035 14.3333 6.71686 14.4856 6.77993C14.6378 6.843 14.768 6.94981 14.8595 7.08685C14.9511 7.22389 15 7.38501 15 7.54983C15 7.77084 14.9122 7.9828 14.7559 8.13908C14.5996 8.29536 14.3877 8.38316 14.1667 8.38316Z" fill="#959595"/>
</g>
</svg>
