<svg width="20" height="20" viewBox="0 0 20 20" fill="none" xmlns="http://www.w3.org/2000/svg">
<path d="M6.66668 9.1665C6.50186 9.1665 6.34074 9.21538 6.2037 9.30695C6.06666 9.39851 5.95985 9.52866 5.89678 9.68093C5.8337 9.83321 5.8172 10.0008 5.84936 10.1624C5.88151 10.3241 5.96088 10.4725 6.07742 10.5891C6.19397 10.7056 6.34245 10.785 6.5041 10.8172C6.66575 10.8493 6.83331 10.8328 6.98558 10.7697C7.13785 10.7067 7.268 10.5999 7.35957 10.4628C7.45114 10.3258 7.50001 10.1647 7.50001 9.99984C7.50001 9.77882 7.41221 9.56686 7.25593 9.41058C7.09965 9.2543 6.88769 9.1665 6.66668 9.1665ZM10 9.1665C9.83519 9.1665 9.67408 9.21538 9.53703 9.30695C9.39999 9.39851 9.29318 9.52866 9.23011 9.68093C9.16704 9.83321 9.15054 10.0008 9.18269 10.1624C9.21484 10.3241 9.29421 10.4725 9.41076 10.5891C9.5273 10.7056 9.67578 10.785 9.83744 10.8172C9.99909 10.8493 10.1666 10.8328 10.3189 10.7697C10.4712 10.7067 10.6013 10.5999 10.6929 10.4628C10.7845 10.3258 10.8333 10.1647 10.8333 9.99984C10.8333 9.77882 10.7455 9.56686 10.5893 9.41058C10.433 9.2543 10.221 9.1665 10 9.1665ZM13.3333 9.1665C13.1685 9.1665 13.0074 9.21538 12.8704 9.30695C12.7333 9.39851 12.6265 9.52866 12.5634 9.68093C12.5004 9.83321 12.4839 10.0008 12.516 10.1624C12.5482 10.3241 12.6275 10.4725 12.7441 10.5891C12.8606 10.7056 13.0091 10.785 13.1708 10.8172C13.3324 10.8493 13.5 10.8328 13.6522 10.7697C13.8045 10.7067 13.9347 10.5999 14.0262 10.4628C14.1178 10.3258 14.1667 10.1647 14.1667 9.99984C14.1667 9.77882 14.0789 9.56686 13.9226 9.41058C13.7663 9.2543 13.5544 9.1665 13.3333 9.1665ZM10 1.6665C8.90566 1.6665 7.82203 1.88205 6.81098 2.30084C5.79993 2.71963 4.88128 3.33346 4.10745 4.10728C2.54465 5.67008 1.66668 7.7897 1.66668 9.99984C1.65939 11.9241 2.32567 13.7903 3.55001 15.2748L1.88334 16.9415C1.76771 17.0587 1.68938 17.2075 1.65824 17.3692C1.62709 17.5308 1.64453 17.6981 1.70834 17.8498C1.77756 17.9998 1.88976 18.1258 2.03072 18.2118C2.17167 18.2979 2.33501 18.3401 2.50001 18.3332H10C12.2101 18.3332 14.3298 17.4552 15.8926 15.8924C17.4554 14.3296 18.3333 12.21 18.3333 9.99984C18.3333 7.7897 17.4554 5.67008 15.8926 4.10728C14.3298 2.54448 12.2101 1.6665 10 1.6665ZM10 16.6665H4.50834L5.28334 15.8915C5.36208 15.8143 5.42473 15.7223 5.46764 15.6207C5.51055 15.5192 5.53289 15.4101 5.53334 15.2998C5.53021 15.08 5.44036 14.8704 5.28334 14.7165C4.19217 13.6265 3.51266 12.192 3.36059 10.6572C3.20852 9.12238 3.5933 7.58234 4.44937 6.29944C5.30544 5.01654 6.57984 4.07014 8.05544 3.62148C9.53104 3.17283 11.1166 3.24967 12.5419 3.83893C13.9672 4.42819 15.1441 5.4934 15.872 6.85308C16.6 8.21276 16.8341 9.78279 16.5343 11.2957C16.2345 12.8086 15.4194 14.1707 14.228 15.15C13.0365 16.1294 11.5423 16.6653 10 16.6665Z" fill="black"/>
</svg>
