<svg width="16" height="16" viewBox="0 0 16 16" fill="none" xmlns="http://www.w3.org/2000/svg">
<path d="M3.33343 13.337H6.16009C6.24783 13.3375 6.33481 13.3207 6.41603 13.2876C6.49726 13.2544 6.57113 13.2055 6.63343 13.1437L11.2468 8.5237L13.1401 6.67037C13.2026 6.60839 13.2522 6.53466 13.286 6.45342C13.3199 6.37218 13.3373 6.28504 13.3373 6.19704C13.3373 6.10903 13.3199 6.02189 13.286 5.94065C13.2522 5.85941 13.2026 5.78568 13.1401 5.7237L10.3134 2.8637C10.2515 2.80122 10.1777 2.75162 10.0965 2.71778C10.0152 2.68393 9.9281 2.6665 9.84009 2.6665C9.75209 2.6665 9.66495 2.68393 9.58371 2.71778C9.50247 2.75162 9.42874 2.80122 9.36676 2.8637L7.48676 4.75037L2.86009 9.37037C2.7983 9.43266 2.74942 9.50654 2.71625 9.58777C2.68307 9.66899 2.66625 9.75597 2.66676 9.8437V12.6704C2.66676 12.8472 2.737 13.0168 2.86202 13.1418C2.98705 13.2668 3.15661 13.337 3.33343 13.337ZM9.84009 4.27704L11.7268 6.1637L10.7801 7.11037L8.89343 5.2237L9.84009 4.27704ZM4.00009 10.117L7.95343 6.1637L9.84009 8.05037L5.88676 12.0037H4.00009V10.117Z" fill="#005AC4"/>
</svg>
