<svg width="22" height="22" viewBox="0 0 22 22" fill="none" xmlns="http://www.w3.org/2000/svg">
<path d="M16.5 16.5002C16.2569 16.5002 16.0237 16.5967 15.8518 16.7686C15.6799 16.9406 15.5833 17.1737 15.5833 17.4168C15.5833 17.6599 15.4868 17.8931 15.3148 18.065C15.1429 18.2369 14.9098 18.3335 14.6667 18.3335H5.5C5.25688 18.3335 5.02373 18.2369 4.85182 18.065C4.67991 17.8931 4.58333 17.6599 4.58333 17.4168V4.5835C4.58333 4.34038 4.67991 4.10722 4.85182 3.93531C5.02373 3.76341 5.25688 3.66683 5.5 3.66683H10.0833V6.41683C10.0833 7.14617 10.3731 7.84565 10.8888 8.36137C11.4045 8.8771 12.104 9.16683 12.8333 9.16683H15.5833V10.0835C15.5833 10.3266 15.6799 10.5598 15.8518 10.7317C16.0237 10.9036 16.2569 11.0002 16.5 11.0002C16.7431 11.0002 16.9763 10.9036 17.1482 10.7317C17.3201 10.5598 17.4167 10.3266 17.4167 10.0835V8.25016C17.4167 8.25016 17.4167 8.25016 17.4167 8.19516C17.4071 8.11095 17.3887 8.02799 17.3617 7.94766C17.3656 7.9203 17.3656 7.89253 17.3617 7.86516C17.3176 7.77091 17.2588 7.68427 17.1875 7.6085L11.6875 2.1085C11.6117 2.03719 11.5251 1.9784 11.4308 1.93433H11.3392C11.2527 1.88797 11.1601 1.85403 11.0642 1.8335H5.5C4.77065 1.8335 4.07118 2.12323 3.55546 2.63895C3.03973 3.15468 2.75 3.85415 2.75 4.5835V17.4168C2.75 18.1462 3.03973 18.8456 3.55546 19.3614C4.07118 19.8771 4.77065 20.1668 5.5 20.1668H14.6667C15.396 20.1668 16.0955 19.8771 16.6112 19.3614C17.1269 18.8456 17.4167 18.1462 17.4167 17.4168C17.4167 17.1737 17.3201 16.9406 17.1482 16.7686C16.9763 16.5967 16.7431 16.5002 16.5 16.5002ZM11.9167 4.95933L14.2908 7.3335H12.8333C12.5902 7.3335 12.3571 7.23692 12.1852 7.06501C12.0132 6.8931 11.9167 6.65994 11.9167 6.41683V4.95933ZM18.3333 12.8335H16.0417C15.921 12.8328 15.8014 12.8559 15.6898 12.9015C15.5781 12.9472 15.4765 13.0144 15.3908 13.0993L14.2542 14.2452L11.6875 11.3118C11.6049 11.2172 11.5038 11.1406 11.3904 11.0867C11.277 11.0328 11.1538 11.0028 11.0283 10.9985C10.9028 10.9942 10.7778 11.0157 10.6609 11.0617C10.5441 11.1078 10.438 11.1773 10.3492 11.266L8.79083 12.8335H7.33333C7.09022 12.8335 6.85706 12.9301 6.68515 13.102C6.51324 13.2739 6.41667 13.507 6.41667 13.7502C6.41667 13.9933 6.51324 14.2264 6.68515 14.3983C6.85706 14.5703 7.09022 14.6668 7.33333 14.6668H9.16667C9.28731 14.6675 9.4069 14.6444 9.51858 14.5988C9.63027 14.5532 9.73185 14.486 9.8175 14.401L11 13.2552L13.5667 16.1885C13.6495 16.2829 13.7508 16.3592 13.8643 16.4129C13.9778 16.4665 14.1012 16.4962 14.2267 16.5002C14.3473 16.5009 14.4669 16.4777 14.5786 16.4321C14.6903 16.3865 14.7918 16.3193 14.8775 16.2343L16.4175 14.6668H18.3333C18.5764 14.6668 18.8096 14.5703 18.9815 14.3983C19.1534 14.2264 19.25 13.9933 19.25 13.7502C19.25 13.507 19.1534 13.2739 18.9815 13.102C18.8096 12.9301 18.5764 12.8335 18.3333 12.8335Z" fill="white" fill-opacity="0.4"/>
</svg>
