<svg width="16" height="16" viewBox="0 0 16 16" fill="none" xmlns="http://www.w3.org/2000/svg">
<path d="M7.33333 13.3335H4C3.82319 13.3335 3.65362 13.2633 3.5286 13.1382C3.40357 13.0132 3.33333 12.8436 3.33333 12.6668V3.3335C3.33333 3.15669 3.40357 2.98712 3.5286 2.86209C3.65362 2.73707 3.82319 2.66683 4 2.66683H7.33333V4.66683C7.33333 5.19726 7.54405 5.70597 7.91912 6.08104C8.29419 6.45612 8.8029 6.66683 9.33333 6.66683H11.3333V8.00016C11.3333 8.17697 11.4036 8.34654 11.5286 8.47157C11.6536 8.59659 11.8232 8.66683 12 8.66683C12.1768 8.66683 12.3464 8.59659 12.4714 8.47157C12.5964 8.34654 12.6667 8.17697 12.6667 8.00016V6.00016C12.6667 6.00016 12.6667 6.00016 12.6667 5.96016C12.6597 5.89892 12.6463 5.83858 12.6267 5.78016V5.72016C12.5931 5.65043 12.5505 5.58542 12.5 5.52683L8.5 1.52683C8.4414 1.47629 8.3764 1.4337 8.30667 1.40016C8.28677 1.39734 8.26657 1.39734 8.24667 1.40016L8.04 1.3335H4C3.46957 1.3335 2.96086 1.54421 2.58579 1.91928C2.21071 2.29436 2 2.80306 2 3.3335V12.6668C2 13.1973 2.21071 13.706 2.58579 14.081C2.96086 14.4561 3.46957 14.6668 4 14.6668H7.33333C7.51014 14.6668 7.67971 14.5966 7.80474 14.4716C7.92976 14.3465 8 14.177 8 14.0002C8 13.8234 7.92976 13.6538 7.80474 13.5288C7.67971 13.4037 7.51014 13.3335 7.33333 13.3335ZM8.66667 3.60683L10.3933 5.3335H9.33333C9.15652 5.3335 8.98695 5.26326 8.86193 5.13823C8.7369 5.01321 8.66667 4.84364 8.66667 4.66683V3.60683ZM12.6667 10.0002H8.94L9.80667 9.14016C9.9322 9.01463 10.0027 8.84436 10.0027 8.66683C10.0027 8.4893 9.9322 8.31903 9.80667 8.1935C9.68113 8.06796 9.51087 7.99744 9.33333 7.99744C9.1558 7.99744 8.98554 8.06796 8.86 8.1935L6.86 10.1935C6.80111 10.2583 6.75376 10.3327 6.72 10.4135C6.65332 10.5758 6.65332 10.7579 6.72 10.9202C6.75054 11.0026 6.79826 11.0776 6.86 11.1402L8.86 13.1402C8.92197 13.2026 8.99571 13.2522 9.07695 13.2861C9.15819 13.3199 9.24533 13.3374 9.33333 13.3374C9.42134 13.3374 9.50848 13.3199 9.58972 13.2861C9.67096 13.2522 9.74469 13.2026 9.80667 13.1402C9.86915 13.0782 9.91875 13.0045 9.95259 12.9232C9.98644 12.842 10.0039 12.7548 10.0039 12.6668C10.0039 12.5788 9.98644 12.4917 9.95259 12.4104C9.91875 12.3292 9.86915 12.2555 9.80667 12.1935L8.94 11.3335H12.6667C12.8435 11.3335 13.013 11.2633 13.1381 11.1382C13.2631 11.0132 13.3333 10.8436 13.3333 10.6668C13.3333 10.49 13.2631 10.3204 13.1381 10.1954C13.013 10.0704 12.8435 10.0002 12.6667 10.0002Z" fill="#00A9DE"/>
</svg>
