<svg width="20" height="20" viewBox="0 0 20 20" fill="none" xmlns="http://www.w3.org/2000/svg">
<path d="M15.8334 1.6665H4.16669C3.50365 1.6665 2.86776 1.9299 2.39892 2.39874C1.93008 2.86758 1.66669 3.50346 1.66669 4.1665V15.8332C1.66669 16.4962 1.93008 17.1321 2.39892 17.6009C2.86776 18.0698 3.50365 18.3332 4.16669 18.3332H15.8334C15.9704 18.3313 16.1071 18.3173 16.2417 18.2915L16.4917 18.2332H16.55H16.5917L16.9 18.1165L17.0084 18.0582C17.0917 18.0082 17.1834 17.9665 17.2667 17.9082C17.378 17.8263 17.4837 17.7372 17.5834 17.6415L17.6417 17.5665C17.7235 17.4836 17.7987 17.3944 17.8667 17.2998L17.9417 17.1915C17.9999 17.0987 18.0501 17.0012 18.0917 16.8998C18.1146 16.8599 18.1341 16.818 18.15 16.7748C18.1917 16.6748 18.2167 16.5665 18.25 16.4582V16.3332C18.2973 16.1703 18.3252 16.0025 18.3334 15.8332V4.1665C18.3334 3.50346 18.07 2.86758 17.6011 2.39874C17.1323 1.9299 16.4964 1.6665 15.8334 1.6665ZM4.16669 16.6665C3.94567 16.6665 3.73371 16.5787 3.57743 16.4224C3.42115 16.2661 3.33335 16.0542 3.33335 15.8332V12.2415L6.07502 9.4915C6.15249 9.4134 6.24466 9.3514 6.34621 9.30909C6.44776 9.26679 6.55668 9.24501 6.66669 9.24501C6.7767 9.24501 6.88562 9.26679 6.98717 9.30909C7.08872 9.3514 7.18088 9.4134 7.25835 9.4915L14.425 16.6665H4.16669ZM16.6667 15.8332C16.6659 15.9359 16.6461 16.0376 16.6084 16.1332C16.5893 16.1738 16.567 16.2128 16.5417 16.2498C16.5194 16.2851 16.4943 16.3186 16.4667 16.3498L12.0084 11.8915L12.7417 11.1582C12.8192 11.0801 12.9113 11.0181 13.0129 10.9758C13.1144 10.9335 13.2233 10.9117 13.3334 10.9117C13.4434 10.9117 13.5523 10.9335 13.6538 10.9758C13.7554 11.0181 13.8476 11.0801 13.925 11.1582L16.6667 13.9082V15.8332ZM16.6667 11.5498L15.1 9.99984C14.6231 9.54733 13.9908 9.29507 13.3334 9.29507C12.6759 9.29507 12.0436 9.54733 11.5667 9.99984L10.8334 10.7332L8.43335 8.33317C7.95645 7.88066 7.3241 7.6284 6.66669 7.6284C6.00927 7.6284 5.37692 7.88066 4.90002 8.33317L3.33335 9.88317V4.1665C3.33335 3.94549 3.42115 3.73353 3.57743 3.57725C3.73371 3.42097 3.94567 3.33317 4.16669 3.33317H15.8334C16.0544 3.33317 16.2663 3.42097 16.4226 3.57725C16.5789 3.73353 16.6667 3.94549 16.6667 4.1665V11.5498Z" fill="#959595"/>
</svg>
