<svg width="20" height="20" viewBox="0 0 20 20" fill="none" xmlns="http://www.w3.org/2000/svg">
<path fill-rule="evenodd" clip-rule="evenodd" d="M9.9999 0.833496C8.45281 0.833496 6.96908 1.44808 5.87511 2.54204C4.78115 3.636 4.16657 5.11973 4.16657 6.66683C4.16657 9.46071 3.56901 11.1957 3.01832 12.2053C2.74183 12.7122 2.47259 13.0447 2.28557 13.2421C2.19184 13.3411 2.11818 13.4067 2.07384 13.4436C2.05165 13.4621 2.03677 13.4735 2.03036 13.4782L2.02798 13.48C1.72924 13.6852 1.59704 14.0606 1.70233 14.4083C1.80874 14.7598 2.13268 15.0002 2.4999 15.0002H17.4999C17.8671 15.0002 18.1911 14.7598 18.2975 14.4083C18.4028 14.0606 18.2706 13.6852 17.9718 13.48L17.9694 13.4782C17.963 13.4735 17.9482 13.4621 17.926 13.4436C17.8816 13.4067 17.808 13.3411 17.7142 13.2421C17.5272 13.0447 17.258 12.7122 16.9815 12.2053C16.4308 11.1957 15.8332 9.46071 15.8332 6.66683C15.8332 5.11973 15.2187 3.636 14.1247 2.54204C13.0307 1.44808 11.547 0.833496 9.9999 0.833496ZM15.5183 13.0034C15.5817 13.1196 15.6454 13.2296 15.7088 13.3335H4.29101C4.35441 13.2296 4.41807 13.1196 4.48148 13.0034C5.18079 11.7213 5.83324 9.70628 5.83324 6.66683C5.83324 5.56176 6.27222 4.50195 7.05362 3.72055C7.83503 2.93915 8.89483 2.50016 9.9999 2.50016C11.105 2.50016 12.1648 2.93915 12.9462 3.72055C13.7276 4.50195 14.1666 5.56176 14.1666 6.66683C14.1666 9.70628 14.819 11.7213 15.5183 13.0034ZM9.27908 17.0821C9.04815 16.684 8.53821 16.5484 8.14011 16.7794C7.742 17.0103 7.60648 17.5202 7.83742 17.9183C8.05718 18.2972 8.37261 18.6117 8.75213 18.8303C9.13165 19.0489 9.56194 19.1639 9.99991 19.1639C10.4379 19.1639 10.8682 19.0489 11.2477 18.8303C11.6272 18.6117 11.9427 18.2972 12.1624 17.9183C12.3933 17.5202 12.2578 17.0103 11.8597 16.7794C11.4616 16.5484 10.9517 16.684 10.7207 17.0821C10.6475 17.2083 10.5423 17.3132 10.4158 17.386C10.2893 17.4589 10.1459 17.4972 9.99991 17.4972C9.85392 17.4972 9.71049 17.4589 9.58399 17.386C9.45748 17.3132 9.35234 17.2083 9.27908 17.0821Z" fill="black"/>
</svg>
