<svg width="22" height="22" viewBox="0 0 22 22" fill="none" xmlns="http://www.w3.org/2000/svg">
<g clip-path="url(#clip0_6295_71118)">
<path d="M20.1667 13.7498H18.3334V10.9998C18.3334 10.7567 18.2368 10.5236 18.0649 10.3517C17.893 10.1797 17.6598 10.0832 17.4167 10.0832H11.9167V8.24984H13.75C13.9931 8.24984 14.2263 8.15326 14.3982 7.98135C14.5701 7.80944 14.6667 7.57629 14.6667 7.33317V1.83317C14.6667 1.59006 14.5701 1.3569 14.3982 1.18499C14.2263 1.01308 13.9931 0.916504 13.75 0.916504H8.25002C8.00691 0.916504 7.77375 1.01308 7.60184 1.18499C7.42993 1.3569 7.33335 1.59006 7.33335 1.83317V7.33317C7.33335 7.57629 7.42993 7.80944 7.60184 7.98135C7.77375 8.15326 8.00691 8.24984 8.25002 8.24984H10.0834V10.0832H4.58335C4.34024 10.0832 4.10708 10.1797 3.93517 10.3517C3.76326 10.5236 3.66669 10.7567 3.66669 10.9998V13.7498H1.83335C1.59024 13.7498 1.35708 13.8464 1.18517 14.0183C1.01326 14.1902 0.916687 14.4234 0.916687 14.6665V20.1665C0.916687 20.4096 1.01326 20.6428 1.18517 20.8147C1.35708 20.9866 1.59024 21.0832 1.83335 21.0832H7.33335C7.57647 21.0832 7.80963 20.9866 7.98154 20.8147C8.15344 20.6428 8.25002 20.4096 8.25002 20.1665V14.6665C8.25002 14.4234 8.15344 14.1902 7.98154 14.0183C7.80963 13.8464 7.57647 13.7498 7.33335 13.7498H5.50002V11.9165H16.5V13.7498H14.6667C14.4236 13.7498 14.1904 13.8464 14.0185 14.0183C13.8466 14.1902 13.75 14.4234 13.75 14.6665V20.1665C13.75 20.4096 13.8466 20.6428 14.0185 20.8147C14.1904 20.9866 14.4236 21.0832 14.6667 21.0832H20.1667C20.4098 21.0832 20.643 20.9866 20.8149 20.8147C20.9868 20.6428 21.0834 20.4096 21.0834 20.1665V14.6665C21.0834 14.4234 20.9868 14.1902 20.8149 14.0183C20.643 13.8464 20.4098 13.7498 20.1667 13.7498ZM6.41669 15.5832V19.2498H2.75002V15.5832H6.41669ZM9.16669 6.4165V2.74984H12.8334V6.4165H9.16669ZM19.25 19.2498H15.5834V15.5832H19.25V19.2498Z" fill="white"/>
</g>
<defs>
<clipPath id="clip0_6295_71118">
<rect width="22" height="22" fill="white"/>
</clipPath>
</defs>
</svg>
