<svg width="20" height="20" viewBox="0 0 20 20" fill="none" xmlns="http://www.w3.org/2000/svg">
<path d="M5.83335 4.99984H5.00002V2.49984C5.00002 2.27882 4.91222 2.06686 4.75594 1.91058C4.59966 1.7543 4.3877 1.6665 4.16669 1.6665C3.94567 1.6665 3.73371 1.7543 3.57743 1.91058C3.42115 2.06686 3.33335 2.27882 3.33335 2.49984V4.99984H2.50002C2.27901 4.99984 2.06704 5.08764 1.91076 5.24392C1.75448 5.4002 1.66669 5.61216 1.66669 5.83317C1.66669 6.05418 1.75448 6.26615 1.91076 6.42243C2.06704 6.57871 2.27901 6.6665 2.50002 6.6665H5.83335C6.05437 6.6665 6.26633 6.57871 6.42261 6.42243C6.57889 6.26615 6.66669 6.05418 6.66669 5.83317C6.66669 5.61216 6.57889 5.4002 6.42261 5.24392C6.26633 5.08764 6.05437 4.99984 5.83335 4.99984ZM4.16669 8.33317C3.94567 8.33317 3.73371 8.42097 3.57743 8.57725C3.42115 8.73353 3.33335 8.94549 3.33335 9.1665V17.4998C3.33335 17.7209 3.42115 17.9328 3.57743 18.0891C3.73371 18.2454 3.94567 18.3332 4.16669 18.3332C4.3877 18.3332 4.59966 18.2454 4.75594 18.0891C4.91222 17.9328 5.00002 17.7209 5.00002 17.4998V9.1665C5.00002 8.94549 4.91222 8.73353 4.75594 8.57725C4.59966 8.42097 4.3877 8.33317 4.16669 8.33317ZM10 14.9998C9.77901 14.9998 9.56705 15.0876 9.41077 15.2439C9.25449 15.4002 9.16669 15.6122 9.16669 15.8332V17.4998C9.16669 17.7209 9.25449 17.9328 9.41077 18.0891C9.56705 18.2454 9.77901 18.3332 10 18.3332C10.221 18.3332 10.433 18.2454 10.5893 18.0891C10.7456 17.9328 10.8334 17.7209 10.8334 17.4998V15.8332C10.8334 15.6122 10.7456 15.4002 10.5893 15.2439C10.433 15.0876 10.221 14.9998 10 14.9998ZM17.5 8.33317H16.6667V2.49984C16.6667 2.27882 16.5789 2.06686 16.4226 1.91058C16.2663 1.7543 16.0544 1.6665 15.8334 1.6665C15.6123 1.6665 15.4004 1.7543 15.2441 1.91058C15.0878 2.06686 15 2.27882 15 2.49984V8.33317H14.1667C13.9457 8.33317 13.7337 8.42097 13.5774 8.57725C13.4212 8.73353 13.3334 8.94549 13.3334 9.1665C13.3334 9.38752 13.4212 9.59948 13.5774 9.75576C13.7337 9.91204 13.9457 9.99984 14.1667 9.99984H17.5C17.721 9.99984 17.933 9.91204 18.0893 9.75576C18.2456 9.59948 18.3334 9.38752 18.3334 9.1665C18.3334 8.94549 18.2456 8.73353 18.0893 8.57725C17.933 8.42097 17.721 8.33317 17.5 8.33317ZM15.8334 11.6665C15.6123 11.6665 15.4004 11.7543 15.2441 11.9106C15.0878 12.0669 15 12.2788 15 12.4998V17.4998C15 17.7209 15.0878 17.9328 15.2441 18.0891C15.4004 18.2454 15.6123 18.3332 15.8334 18.3332C16.0544 18.3332 16.2663 18.2454 16.4226 18.0891C16.5789 17.9328 16.6667 17.7209 16.6667 17.4998V12.4998C16.6667 12.2788 16.5789 12.0669 16.4226 11.9106C16.2663 11.7543 16.0544 11.6665 15.8334 11.6665ZM11.6667 11.6665H10.8334V2.49984C10.8334 2.27882 10.7456 2.06686 10.5893 1.91058C10.433 1.7543 10.221 1.6665 10 1.6665C9.77901 1.6665 9.56705 1.7543 9.41077 1.91058C9.25449 2.06686 9.16669 2.27882 9.16669 2.49984V11.6665H8.33335C8.11234 11.6665 7.90038 11.7543 7.7441 11.9106C7.58782 12.0669 7.50002 12.2788 7.50002 12.4998C7.50002 12.7209 7.58782 12.9328 7.7441 13.0891C7.90038 13.2454 8.11234 13.3332 8.33335 13.3332H11.6667C11.8877 13.3332 12.0997 13.2454 12.2559 13.0891C12.4122 12.9328 12.5 12.7209 12.5 12.4998C12.5 12.2788 12.4122 12.0669 12.2559 11.9106C12.0997 11.7543 11.8877 11.6665 11.6667 11.6665Z" fill="#959595"/>
</svg>
