<svg width="22" height="22" viewBox="0 0 22 22" fill="none" xmlns="http://www.w3.org/2000/svg">
<path d="M17.4166 5.95817H14.6666V5.0415C14.6666 4.31216 14.3769 3.61269 13.8612 3.09696C13.3455 2.58124 12.646 2.2915 11.9166 2.2915H10.0833C9.35397 2.2915 8.65449 2.58124 8.13877 3.09696C7.62304 3.61269 7.33331 4.31216 7.33331 5.0415V5.95817H4.58331C3.85397 5.95817 3.15449 6.2479 2.63877 6.76363C2.12304 7.27935 1.83331 7.97883 1.83331 8.70817V16.9582C1.83331 17.6875 2.12304 18.387 2.63877 18.9027C3.15449 19.4184 3.85397 19.7082 4.58331 19.7082H17.4166C18.146 19.7082 18.8455 19.4184 19.3612 18.9027C19.8769 18.387 20.1666 17.6875 20.1666 16.9582V8.70817C20.1666 7.97883 19.8769 7.27935 19.3612 6.76363C18.8455 6.2479 18.146 5.95817 17.4166 5.95817ZM9.16665 5.0415C9.16665 4.79839 9.26322 4.56523 9.43513 4.39332C9.60704 4.22141 9.8402 4.12484 10.0833 4.12484H11.9166C12.1598 4.12484 12.3929 4.22141 12.5648 4.39332C12.7367 4.56523 12.8333 4.79839 12.8333 5.0415V5.95817H9.16665V5.0415ZM18.3333 16.9582C18.3333 17.2013 18.2367 17.4344 18.0648 17.6064C17.8929 17.7783 17.6598 17.8748 17.4166 17.8748H4.58331C4.3402 17.8748 4.10704 17.7783 3.93513 17.6064C3.76322 17.4344 3.66665 17.2013 3.66665 16.9582V12.329H6.41665V13.2915C6.41665 13.5346 6.51322 13.7678 6.68513 13.9397C6.85704 14.1116 7.0902 14.2082 7.33331 14.2082C7.57643 14.2082 7.80959 14.1116 7.98149 13.9397C8.1534 13.7678 8.24998 13.5346 8.24998 13.2915V12.329H13.75V13.2915C13.75 13.5346 13.8466 13.7678 14.0185 13.9397C14.1904 14.1116 14.4235 14.2082 14.6666 14.2082C14.9098 14.2082 15.1429 14.1116 15.3148 13.9397C15.4867 13.7678 15.5833 13.5346 15.5833 13.2915V12.329H18.3333V16.9582ZM18.3333 10.5415H3.66665V8.70817C3.66665 8.46506 3.76322 8.2319 3.93513 8.05999C4.10704 7.88808 4.3402 7.7915 4.58331 7.7915H17.4166C17.6598 7.7915 17.8929 7.88808 18.0648 8.05999C18.2367 8.2319 18.3333 8.46506 18.3333 8.70817V10.5415Z" fill="white" fill-opacity="0.4"/>
</svg>
