<svg width="22" height="22" viewBox="0 0 22 22" fill="none" xmlns="http://www.w3.org/2000/svg">
<path d="M11.275 11.2018C11.7641 10.7785 12.1564 10.2548 12.4253 9.66643C12.6942 9.07806 12.8334 8.43873 12.8334 7.79183C12.8334 6.57625 12.3505 5.41047 11.4909 4.55092C10.6314 3.69138 9.4656 3.2085 8.25002 3.2085C7.03444 3.2085 5.86866 3.69138 5.00911 4.55092C4.14957 5.41047 3.66669 6.57625 3.66669 7.79183C3.66668 8.43873 3.80584 9.07806 4.07472 9.66643C4.3436 10.2548 4.73591 10.7785 5.22502 11.2018C3.94182 11.7829 2.85311 12.7212 2.08909 13.9047C1.32506 15.0881 0.918036 16.4665 0.916687 17.8752C0.916687 18.1183 1.01326 18.3514 1.18517 18.5233C1.35708 18.6953 1.59024 18.7918 1.83335 18.7918C2.07647 18.7918 2.30963 18.6953 2.48153 18.5233C2.65344 18.3514 2.75002 18.1183 2.75002 17.8752C2.75002 16.4165 3.32948 15.0175 4.36093 13.9861C5.39238 12.9546 6.79133 12.3752 8.25002 12.3752C9.70871 12.3752 11.1077 12.9546 12.1391 13.9861C13.1706 15.0175 13.75 16.4165 13.75 17.8752C13.75 18.1183 13.8466 18.3514 14.0185 18.5233C14.1904 18.6953 14.4236 18.7918 14.6667 18.7918C14.9098 18.7918 15.143 18.6953 15.3149 18.5233C15.4868 18.3514 15.5834 18.1183 15.5834 17.8752C15.582 16.4665 15.175 15.0881 14.411 13.9047C13.6469 12.7212 12.5582 11.7829 11.275 11.2018ZM8.25002 10.5418C7.70612 10.5418 7.17444 10.3805 6.7222 10.0784C6.26997 9.7762 5.91749 9.34671 5.70935 8.84421C5.50121 8.34171 5.44675 7.78878 5.55286 7.25533C5.65897 6.72188 5.92088 6.23188 6.30548 5.84729C6.69007 5.46269 7.18007 5.20078 7.71352 5.09467C8.24697 4.98856 8.7999 5.04302 9.3024 5.25116C9.8049 5.4593 10.2344 5.81178 10.5366 6.26401C10.8387 6.71625 11 7.24793 11 7.79183C11 8.52117 10.7103 9.22065 10.1946 9.73637C9.67884 10.2521 8.97937 10.5418 8.25002 10.5418ZM17.1784 10.8352C17.765 10.1745 18.1482 9.35846 18.2818 8.48514C18.4155 7.61182 18.2939 6.71848 17.9316 5.91266C17.5694 5.10684 16.982 4.42289 16.2401 3.94313C15.4982 3.46338 14.6335 3.20826 13.75 3.2085C13.5069 3.2085 13.2737 3.30507 13.1018 3.47698C12.9299 3.64889 12.8334 3.88205 12.8334 4.12516C12.8334 4.36828 12.9299 4.60144 13.1018 4.77334C13.2737 4.94525 13.5069 5.04183 13.75 5.04183C14.4794 5.04183 15.1788 5.33156 15.6946 5.84729C16.2103 6.36301 16.5 7.06248 16.5 7.79183C16.4987 8.2733 16.371 8.74599 16.1297 9.16263C15.8884 9.57927 15.542 9.92526 15.125 10.166C14.9891 10.2444 14.8756 10.3564 14.7954 10.4912C14.7151 10.626 14.6708 10.7792 14.6667 10.936C14.6629 11.0916 14.6987 11.2456 14.7709 11.3836C14.843 11.5215 14.9492 11.6388 15.0792 11.7243L15.4367 11.9627L15.5559 12.0268C16.6608 12.5509 17.593 13.3798 18.2426 14.416C18.8922 15.4521 19.2322 16.6523 19.2225 17.8752C19.2225 18.1183 19.3191 18.3514 19.491 18.5233C19.6629 18.6953 19.8961 18.7918 20.1392 18.7918C20.3823 18.7918 20.6155 18.6953 20.7874 18.5233C20.9593 18.3514 21.0559 18.1183 21.0559 17.8752C21.0633 16.4685 20.711 15.0832 20.0324 13.8511C19.3537 12.6189 18.3713 11.5807 17.1784 10.8352Z" fill="white" fill-opacity="0.4"/>
</svg>
