<svg width="20" height="20" viewBox="0 0 20 20" fill="none" xmlns="http://www.w3.org/2000/svg">
<path d="M10.25 10.1832C10.6946 9.79828 11.0513 9.32224 11.2957 8.78736C11.5401 8.25247 11.6667 7.67126 11.6666 7.08317C11.6666 5.9781 11.2277 4.91829 10.4463 4.13689C9.66486 3.35549 8.60505 2.9165 7.49998 2.9165C6.39491 2.9165 5.3351 3.35549 4.5537 4.13689C3.7723 4.91829 3.33331 5.9781 3.33331 7.08317C3.33331 7.67126 3.45981 8.25247 3.70425 8.78736C3.94869 9.32224 4.30533 9.79828 4.74998 10.1832C3.58343 10.7114 2.5937 11.5644 1.89913 12.6403C1.20456 13.7161 0.83454 14.9693 0.833313 16.2498C0.833313 16.4709 0.92111 16.6828 1.07739 16.8391C1.23367 16.9954 1.44563 17.0832 1.66665 17.0832C1.88766 17.0832 2.09962 16.9954 2.2559 16.8391C2.41218 16.6828 2.49998 16.4709 2.49998 16.2498C2.49998 14.9238 3.02676 13.652 3.96445 12.7143C4.90213 11.7766 6.1739 11.2498 7.49998 11.2498C8.82606 11.2498 10.0978 11.7766 11.0355 12.7143C11.9732 13.652 12.5 14.9238 12.5 16.2498C12.5 16.4709 12.5878 16.6828 12.7441 16.8391C12.9003 16.9954 13.1123 17.0832 13.3333 17.0832C13.5543 17.0832 13.7663 16.9954 13.9226 16.8391C14.0788 16.6828 14.1666 16.4709 14.1666 16.2498C14.1654 14.9693 13.7954 13.7161 13.1008 12.6403C12.4063 11.5644 11.4165 10.7114 10.25 10.1832ZM7.49998 9.58317C7.00553 9.58317 6.52218 9.43655 6.11105 9.16184C5.69993 8.88714 5.3795 8.49669 5.19028 8.03988C5.00106 7.58306 4.95155 7.0804 5.04802 6.59544C5.14448 6.11049 5.38258 5.66504 5.73221 5.3154C6.08184 4.96577 6.5273 4.72767 7.01225 4.63121C7.49721 4.53474 7.99987 4.58425 8.45669 4.77347C8.9135 4.96269 9.30395 5.28312 9.57865 5.69425C9.85336 6.10537 9.99998 6.58872 9.99998 7.08317C9.99998 7.74621 9.73659 8.3821 9.26775 8.85094C8.79891 9.31978 8.16302 9.58317 7.49998 9.58317ZM15.6166 9.84984C16.15 9.24928 16.4983 8.50738 16.6198 7.71345C16.7413 6.91952 16.6308 6.1074 16.3015 5.37484C15.9721 4.64228 15.4381 4.0205 14.7637 3.58436C14.0893 3.14821 13.3032 2.91629 12.5 2.9165C12.279 2.9165 12.067 3.0043 11.9107 3.16058C11.7544 3.31686 11.6666 3.52882 11.6666 3.74984C11.6666 3.97085 11.7544 4.18281 11.9107 4.33909C12.067 4.49537 12.279 4.58317 12.5 4.58317C13.163 4.58317 13.7989 4.84656 14.2677 5.3154C14.7366 5.78424 15 6.42013 15 7.08317C14.9988 7.52087 14.8827 7.95059 14.6634 8.32935C14.444 8.70812 14.129 9.02265 13.75 9.2415C13.6264 9.31277 13.5232 9.41456 13.4503 9.53712C13.3773 9.65968 13.3371 9.79892 13.3333 9.9415C13.3298 10.083 13.3624 10.223 13.428 10.3484C13.4936 10.4738 13.5901 10.5804 13.7083 10.6582L14.0333 10.8748L14.1416 10.9332C15.1461 11.4096 15.9936 12.1632 16.5841 13.1051C17.1747 14.047 17.4838 15.1381 17.475 16.2498C17.475 16.4709 17.5628 16.6828 17.7191 16.8391C17.8753 16.9954 18.0873 17.0832 18.3083 17.0832C18.5293 17.0832 18.7413 16.9954 18.8976 16.8391C19.0538 16.6828 19.1416 16.4709 19.1416 16.2498C19.1485 14.971 18.8282 13.7117 18.2112 12.5916C17.5942 11.4714 16.7011 10.5276 15.6166 9.84984Z" fill="#959595"/>
</svg>
