<svg width="20" height="20" viewBox="0 0 20 20" fill="none" xmlns="http://www.w3.org/2000/svg">
<path d="M12.3417 10.2332C12.8692 9.66671 13.1663 8.92382 13.175 8.14984C13.175 7.31441 12.8431 6.51319 12.2524 5.92245C11.6617 5.33171 10.8605 4.99984 10.025 4.99984C9.18959 4.99984 8.38837 5.33171 7.79763 5.92245C7.20689 6.51319 6.87502 7.31441 6.87502 8.14984C6.88372 8.92382 7.18087 9.66671 7.70835 10.2332C6.9739 10.5989 6.34187 11.1415 5.86912 11.812C5.39636 12.4826 5.09771 13.2602 5.00002 14.0748C4.97571 14.2959 5.04019 14.5175 5.17928 14.6909C5.31837 14.8644 5.52067 14.9755 5.74169 14.9998C5.9627 15.0241 6.18432 14.9597 6.35779 14.8206C6.53126 14.6815 6.64238 14.4792 6.66669 14.2582C6.76613 13.4508 7.15739 12.7076 7.76676 12.1687C8.37613 11.6298 9.16153 11.3323 9.97502 11.3323C10.7885 11.3323 11.5739 11.6298 12.1833 12.1687C12.7927 12.7076 13.1839 13.4508 13.2834 14.2582C13.3065 14.4719 13.4114 14.6683 13.576 14.8065C13.7406 14.9447 13.9522 15.014 14.1667 14.9998H14.2584C14.4768 14.9747 14.6765 14.8643 14.8138 14.6925C14.9512 14.5208 15.0151 14.3018 14.9917 14.0832C14.9012 13.2728 14.612 12.4974 14.1497 11.8257C13.6874 11.1541 13.0663 10.607 12.3417 10.2332ZM10 9.63317C9.70665 9.63317 9.41986 9.54617 9.17592 9.38318C8.93199 9.22019 8.74187 8.98853 8.6296 8.71748C8.51733 8.44644 8.48795 8.14819 8.54519 7.86045C8.60242 7.57272 8.7437 7.30841 8.95115 7.10096C9.15859 6.89351 9.4229 6.75224 9.71064 6.69501C9.99838 6.63777 10.2966 6.66715 10.5677 6.77942C10.8387 6.89169 11.0704 7.08181 11.2334 7.32574C11.3964 7.56967 11.4834 7.85646 11.4834 8.14984C11.4834 8.54324 11.3271 8.92053 11.0489 9.19871C10.7707 9.47689 10.3934 9.63317 10 9.63317ZM15.8334 1.6665H4.16669C3.50365 1.6665 2.86776 1.9299 2.39892 2.39874C1.93008 2.86758 1.66669 3.50346 1.66669 4.1665V15.8332C1.66669 16.4962 1.93008 17.1321 2.39892 17.6009C2.86776 18.0698 3.50365 18.3332 4.16669 18.3332H15.8334C16.4964 18.3332 17.1323 18.0698 17.6011 17.6009C18.07 17.1321 18.3334 16.4962 18.3334 15.8332V4.1665C18.3334 3.50346 18.07 2.86758 17.6011 2.39874C17.1323 1.9299 16.4964 1.6665 15.8334 1.6665ZM16.6667 15.8332C16.6667 16.0542 16.5789 16.2661 16.4226 16.4224C16.2663 16.5787 16.0544 16.6665 15.8334 16.6665H4.16669C3.94567 16.6665 3.73371 16.5787 3.57743 16.4224C3.42115 16.2661 3.33335 16.0542 3.33335 15.8332V4.1665C3.33335 3.94549 3.42115 3.73353 3.57743 3.57725C3.73371 3.42097 3.94567 3.33317 4.16669 3.33317H15.8334C16.0544 3.33317 16.2663 3.42097 16.4226 3.57725C16.5789 3.73353 16.6667 3.94549 16.6667 4.1665V15.8332Z" fill="white"/>
</svg>
